<svg xmlns="http://www.w3.org/2000/svg" height="3324.907" width="2355.587" xml:space="preserve"><path style="fill:#4353ad;fill-opacity:1;fill-rule:nonzero;stroke:none" d="M8822.65 0 1607.82 2002.9 0 20036.1h17666.9L16057.4 2005.6 8822.65 0" transform="matrix(.13333 0 0 -.13333 0 3324.907)"/><path style="fill:#485fb5;fill-opacity:1;fill-rule:nonzero;stroke:none" d="m14679.5 3153.8 1375.3 15407.9H8833.45V1533.1l5846.05 1620.7" transform="matrix(.13333 0 0 -.13333 0 3324.907)"/><path style="fill:#ededed;fill-opacity:1;fill-rule:nonzero;stroke:none" d="m8833.45 6129.3-9.7-2.5-2463.15 665.1-157.48 1763.9H3982.9l309.83-3472.7 4530.54-1257.7 10.18 2.8zM3287.54 16349.9l201.04-2211.7h5344.87v2211.7H3287.54zm398.33-4476.5 198.2-2211.7h4949.38v2211.7H3685.87" transform="matrix(.13333 0 0 -.13333 0 3324.907)"/><path style="fill:#100f0d;fill-opacity:1;fill-rule:nonzero;stroke:none" d="M10586.8 24936.8h2678.8v-974.1h-1558.5v-194.8h1558.5v-2240.5h-2678.8v1023h1558.6v194.8h-1558.5v2191.6zm-3214.5 0H10051v-974.1H8492.52v-194.8H10051v-2240.5H7372.37v1023h1558.52v194.8H7372.23v2191.6zm-3214.48 0H6836.5v-1120.2H5278.05v-1120.2h1558.58v-1120.2H4157.82v3360.6" transform="matrix(.13333 0 0 -.13333 0 3324.907)"/><path style="fill:#fff;fill-opacity:1;fill-rule:nonzero;stroke:none" d="m13966.9 11873.4 399.2 4476.5H8825.83v-2211.7h3116.47l-201.2-2264.8H8825.83V9661.7h2723.47l-256.8-2868.5-2466.74-665.7v-2301l4534.14 1256.6 33.2 373.6 519.9 5822.8 53.9 593.9" transform="matrix(.13333 0 0 -.13333 0 3324.907)"/></svg>